<svg xmlns="http://www.w3.org/2000/svg" viewBox="0 0 750 750"><defs><style>.cls-1{fill:#d1aac5;}.cls-2{fill:#a67c52;}.cls-3{fill:#534741;}.cls-4{fill:#736357;}.cls-5{fill:#1a1a1a;}.cls-6{fill:#fff;}.cls-7{fill:#5e4842;}

	#Dog_10:hover #BG{fill:#cccccc;}

</style></defs><title>Artboard 10</title><g id="Dog_10" data-name="Dog 10"><circle id="BG" class="cls-1" cx="375.5" cy="374.5" r="375"/><g id="Dog10"><polygon id="InnerEarL" class="cls-2" points="183.93 187.42 228.44 169.4 255.99 169.4 267.65 199.08 203.83 234.49 183.93 187.42"/><path id="OuterEarR" class="cls-3" d="M419.2,170.46S429.8,180,433,159.86s41.33-30.73,41.33-30.73,44.51-14.84,80.54,30.73c0,0,111.28,103.86,143.08,118.7,0,0,33.91,25.44,0,20.14,0,0-51.93,23.31-86.91-6.36s-24.37-44.51-55.11-22.26c0,0-1.06,18-9.53,22.26s-25.44,49.81-25.44,49.81Z"/><path id="Head" class="cls-4" d="M273,181.06s78.42-25.43,151.55-13.78,104,135.45,98.56,199.24c-5.3,62.53,14.84,271.31-91.14,250.12,0,0-46.63,42.39-103.86,9.53,0,0-54.05,21.2-72.07-23.31S203,456.61,192.4,404.68C192.4,404.68,145.77,212.85,273,181.06Z"/><g id="Face"><path id="Chin" class="cls-2" d="M373,566.19s-16.37,49.39-45,45.15a15.54,15.54,0,0,0,.18,9.87c2.44,6.75,9.17,9.81,12.54,11.32,11.82,5.31,46.94,14.76,83.72-8.47,20.14-12.72,12.31-16.33,9.8-19.58-1.58-2.05-6.17-.86-7.68-.56C418.39,605.53,403.28,599.89,373,566.19Z"/><path id="Mouth" class="cls-3" d="M356.67,422.69s-76.3,9.54-71,134.6c0,0-4.24,65.71,42.39,58.29s47.69-47.69,47.69-47.69,15.9,50.87,56.17,40.27,26.49-60.41,26.49-60.41S464.77,418.45,356.67,422.69Z"/><g id="Nose"><path id="NoseBody" class="cls-5" d="M365.15,497.94s-35,2.12-42.39,29.67,12.72,23.32,21.2,13.78,13.77,7.42,12.71,15.9,26.5,14.84,28.62,0,2.12-29.68,14.83-21.2c7.11,4.74,18,15.9,19.08-12.72S365.15,497.94,365.15,497.94Z"/><path id="NoseShine" class="cls-6" d="M379.4,507.21s-13.84,5.58.44,8.29,13.71-2.1,19.37,4.53,10.69,12.61,11.76-.62S393.54,507.16,379.4,507.21Z"/></g></g><path id="OuterEarL" class="cls-3" d="M63.11,237.23s48.75-42.39,162.15-77.37c0,0,35-1.06,47.69,21.2s-16.54,5.4-16.54,5.4S211.48,133.37,220,231.93s-21.2,190.76-49.81,201.36S115,438.59,79,366.52c0,0-14.84-49.81-15.9-75.24,0,0-4.24-18-13.78-21.2S43,252.07,63.11,237.23Z"/><path id="InnerEarR" class="cls-2" d="M488.09,181.06s18-36,89,33.91,101.74,75.25,101.74,75.25-37.09,29.67-108.1-47.69c0,0-10.6,22.25-21.19,4.24S480.67,194.84,488.09,181.06Z"/><g id="EyeBrows"><path id="EyebrowL" class="cls-2" d="M276.13,295.52s24.37-13.78,27.55,19.07-27.55,12.72-27.55,12.72S257.05,311.42,276.13,295.52Z"/><path id="EyebrowR" class="cls-2" d="M423,280.89s-27.13-6.95-21.63,25.6,29.92,5.09,29.92,5.09S445.57,291.26,423,280.89Z"/></g><g id="Eyes"><g id="EyeL"><circle id="EyeBodyL" class="cls-7" cx="259.31" cy="365.7" r="27.27"/><ellipse id="EyeShineL" class="cls-6" cx="260.72" cy="352.23" rx="13.35" ry="12.77" transform="translate(-23.33 18.53) rotate(-3.9)"/></g><g id="EyeR"><circle id="EyeBodyR" class="cls-7" cx="458.42" cy="350.9" r="26.27"/><ellipse id="EyeShineR" class="cls-6" cx="460.89" cy="337.84" rx="12.86" ry="12.3" transform="translate(-21.89 32.1) rotate(-3.9)"/></g></g></g></g></svg>