<svg xmlns="http://www.w3.org/2000/svg" viewBox="0 0 750 750"><defs><style>.cls-1{fill:#688eab;}.cls-2{fill:#c1a57c;}.cls-3{fill:#e5cfaa;}.cls-4{fill:#5e4842;}.cls-5,.cls-6{fill:#fff;}.cls-6{opacity:0.56;}.cls-7{fill:#c69c6d;}.cls-8{fill:#261d1b;}

	#Dog_2:hover #BG2{fill:#cccccc;}


</style></defs><title>Artboard 2</title><g id="Dog_2" data-name="Dog 2"><ellipse id="BG2" class="cls-1" cx="375.5" cy="376.25" rx="375" ry="375.25"/><g id="Dog2"><g id="InsideEars"><path id="InsideEarL" class="cls-2" d="M55.13,289.76S81,298,117,277c0,0,34.06,69.92,74,64.46S265,243,265,243l-21-54H189L55,277Z"/><path id="InsideEarR" class="cls-2" d="M490,302l34.33,60.4S580,352,601,315c0,0,74-1,80-13s-95-71-95-71l-42-42-62,31-25,45Z"/></g><path id="Head" class="cls-3" d="M39,277s95-67,148-96,75,21,75,21,2,26,35,22,114-1,144,7,34-16,34-16,18-45,69-26S687,290,687,290s64,40-29,12c0,0-128-145-171-71,0,0-19,24,14,58s22,123,22,123S464,643,352,643,192,407,192,407s-18-82,30-130,24-69,24-69-29-41-86,7S48,290,48,290,21,300,39,277Z"/><g id="Eyes"><g id="EyeL"><circle id="EyeBodyL" class="cls-4" cx="261.22" cy="383.54" r="33.35"/><ellipse id="EyeShineL" class="cls-5" cx="265.19" cy="367.46" rx="15.61" ry="16.32" transform="translate(-119.89 606.34) rotate(-86)"/></g><g id="EyeR"><circle id="EyeBodyR" class="cls-4" cx="449.91" cy="387.49" r="32.13"/><ellipse id="EyeShineR" class="cls-5" cx="455.1" cy="372.09" rx="15.04" ry="15.72" transform="translate(52.14 800.09) rotate(-86)"/></g></g><g id="Face"><path id="Mouth" class="cls-6" d="M357,481s-65,3-81,50c-16.23,47.67-4,110,67,83,0,0,83,28,89-33S417,490,357,481Z"/><path id="Chin" class="cls-7" d="M345,595s-8.35,22.55-38.18,25.27c0,0-3.82,19.09,38.18,22.41s47.61-22.14,47.61-22.14S365,619,345,595Z"/><g id="Nose"><path id="NoseBody" class="cls-8" d="M350,517s-54-5-55,22,20,12,20,12,16-3,22,30c0,0,13,12,21,0,0,0,3-30,13-30s30,19,28-12S350,517,350,517Z"/><path id="NoseShine" class="cls-5" d="M363.74,520.46s-11.83,5.17,0,8.87,12.56-1.48,17,5.91,7.39,14,8.87,0S375.56,521.2,363.74,520.46Z"/></g></g><g id="EyeBrows"><path id="EyeBrowL" class="cls-7" d="M216.21,364.19s16.63-35.9,68.14-27.15c0,0,9.1,12.69,10.4-5.26S283.8,317,283.8,317,222.1,310.47,216.21,364.19Z"/><path id="EyeBrowR" class="cls-7" d="M500,377.41s-12.6-37.5-64.75-34.46c0,0-10.45,11.62-9.77-6.37S438,323,438,323,500,323.37,500,377.41Z"/></g></g></g></svg>