<svg xmlns="http://www.w3.org/2000/svg" viewBox="0 0 750 750"><defs><style>.cls-1{fill:#688eab;}.cls-2{fill:#e5cfaa;}.cls-3{fill:#5e4842;}.cls-4{fill:#fff;}.cls-5,.cls-6,.cls-7{fill:#534741;}.cls-5{opacity:0.71;}.cls-7{opacity:0.81;}

	#Dog_3:hover #BG3{fill:#cccccc;}


</style></defs><title>Artboard 3</title><g id="Dog_3" data-name="Dog 3"><circle id="BG3" class="cls-1" cx="373.5" cy="375.5" r="375"/><g id="Dog3"><g id="Ears"><path id="EarL" d="M100,243S65,267,83,350s48,86,48,86,30.16-3.74,31.58-106.87L253,202l10-42s-25-4-74,45C189,205,129,227,100,243Z"/><path id="EarR" d="M474.57,157.25S476,141,500,157s81,41,117,96c0,0,71,43,50,86s-26,48-26,48-10,31-34-12S475,231,475,231Z"/></g><path id="Head" class="cls-2" d="M263,160s95-60,200-9S595,367,595,367s14,143-68,207-133,55-133,55-122-1-179-67-71-174-45-255S221,201,263,160Z"/><g id="Eyes"><g id="EyeL"><circle id="EyeBodyL" class="cls-3" cx="229.57" cy="359.46" r="41"/><ellipse id="EyeShineL" class="cls-4" cx="233.06" cy="339.4" rx="20.06" ry="19.19"/></g><g id="EyeR"><circle id="EyeBodyR" class="cls-3" cx="514.07" cy="354.96" r="39.5"/><ellipse id="EyeShineR" class="cls-4" cx="519.11" cy="335.63" rx="19.33" ry="18.49"/></g></g><g id="Face"><path id="Mouth" class="cls-5" d="M365,339S224,357,233,509s75,69,75,69l66-82,57.13,56.29A106.69,106.69,0,0,1,447,572.41c6.51,10.59,19,25.92,35,22.59,24-5,41-30,32-99S477,339,365,339Z"/><path id="Chin" class="cls-6" d="M374,470s-4.4,31.92-38.2,73.46c0,0,39.34,32.46,84.27-4C420.07,539.46,384,509,374,470Z"/><g id="Nose"><path id="NoseBody" d="M374,350s-59-1-61,44,45,33,42,13c-.6,5.59-.6,14.71,4.43,23.41,2.07,3.58,5.36,9.27,10.57,9.59s9-4.72,10.45-6.52c7.68-9.83,4.38-23.37,3.55-26.48a22,22,0,0,0,43-7S432,351,374,350Z"/><path id="NoseShine" class="cls-4" d="M382.74,360.46s-11.83,5.17,0,8.87,12.56-1.48,17,5.91,7.39,14,8.87,0S394.56,361.2,382.74,360.46Z"/></g></g><g id="EyeBrows"><path id="EyebrowL" class="cls-7" d="M233,290s-39,5-44,28c0,0-3,11,13,0s29-14,42-12,20-2,19-8S257,283,233,290Z"/><path id="EyebrowR" class="cls-7" d="M511.87,287s39,5,44,28c0,0,3,11-13,0s-29-14-42-12-20-2-19-8S487.87,280,511.87,287Z"/></g></g></g></svg>