<svg xmlns="http://www.w3.org/2000/svg" viewBox="0 0 750 750"><defs><style>.cls-1{fill:#688eab;}.cls-2{fill:#e5cfaa;}.cls-3{fill:#5e4842;}.cls-4{fill:#fff;}.cls-5{fill:#f2e1d1;}.cls-6{fill:#c7b299;}.cls-7{fill:#42210b;}.cls-8{fill:#77210b;opacity:0.13;}.cls-9{fill:#998675;}

	#Dog_4:hover #BG4{fill:#cccccc;}


</style></defs><title>Artboard 4</title><g id="Dog_4" data-name="Dog 4"><circle id="BG4" class="cls-1" cx="377.5" cy="375.5" r="375"/><g id="Dog4"><path id="Head" class="cls-2" d="M73.37,254.69s95.84,6.25,135.42,34.37,44.8,32.3,68.76,11.46,54.17-30.21,80.21-33.33,61.47-4.17,100,16.67,36.46,6.25,57.3-8.34,100-35.42,134.38-37.5,74-1,33.34,76-84.38,130.21-84.38,130.21-38.55,46.88-45.84,80.22-100,87.5-159.39,91.67-168.76-25-184.39-62.5S174.94,467.72,149.94,449,85.35,379.18,66.6,339.59,12.43,257.29,73.37,254.69Z"/><g id="Eyes"><g id="EyeL"><circle id="EyeBodyL" class="cls-3" cx="271.89" cy="445.81" r="42.71"/><ellipse id="EyeShineL" class="cls-4" cx="275.52" cy="424.9" rx="20.9" ry="19.99"/></g><g id="EyeR"><circle id="EyeBodyR" class="cls-3" cx="467.21" cy="435.91" r="41.15"/><ellipse id="EyeShineR" class="cls-4" cx="472.47" cy="415.77" rx="20.14" ry="19.26"/></g></g><g id="Face"><path id="Mouth" class="cls-5" d="M380.14,448.45s-103.22,0-102.35,82.44S359.23,554,359.23,554s28-22.86,53.25-2,68.87,24.66,65.58-23.43S455,452.5,380.14,448.45Z"/><path id="Chin" class="cls-6" d="M379.64,521.37s-19.79,33.34-44,45.6c0,0,57.64,30.82,92.47-4.26C428.15,562.71,410.89,559.92,379.64,521.37Z"/><g id="Nose"><path id="NoseBody" class="cls-7" d="M377.56,470.33s-38.55,1-41.67,17.71,28.12,31.25,33.33,12.5c0,0-9.37,19.79,8.34,20.83s15.62-25,15.62-25a13.92,13.92,0,0,0,9.29,2.23c8.77-1.39,14.69-13.34,12.59-19.94C412.57,470.85,397.46,466.06,377.56,470.33Z"/><path id="NoseShine" class="cls-4" d="M385.23,477.13s-6.94,6,1.88,6,8.22-3.68,12.81.4,8,8,6-1.89S393.42,475.11,385.23,477.13Z"/></g></g><g id="InnerEars"><path id="InnerEarL" class="cls-8" d="M64,275.52s140.64,13.54,137.51,51.05S190,424.49,190,424.49,170.25,461,117.12,377.61,48.37,273.44,64,275.52Z"/><path id="InnerEarR" class="cls-8" d="M676.54,259.9c41.66,0-84.39,196.88-106.26,142.71S513,281.77,560.9,275.52,676.54,259.9,676.54,259.9Z"/></g><g id="EyeBrows"><path id="EyeBrowL" class="cls-9" d="M277.55,379.7s17.71-5.21,20.83,4.16-3.12,13.55-10.41,13.55-31.26-5.21-31.26-5.21-11.45-5.21,0-8.34A152.38,152.38,0,0,1,277.55,379.7Z"/><path id="EyeBrowR" class="cls-9" d="M449.2,371.77s-18.28-2.55-20,7.19,5.08,12.93,12.3,11.86,30.14-9.76,30.14-9.76,10.57-6.84-1.23-8.24A150.6,150.6,0,0,0,449.2,371.77Z"/></g></g></g></svg>