<svg xmlns="http://www.w3.org/2000/svg" viewBox="0 0 750 750"><defs><style>.cls-1{fill:#abddd0;}.cls-2{fill:#c69c7f;}.cls-3{fill:#5e4842;}.cls-4{fill:#fff;}.cls-5{fill:#9e7451;}.cls-6{fill:#a67c52;}

	#Dog_5:hover #BG{fill:#cccccc;}


</style></defs><title>Artboard 5</title><g id="Dog_5" data-name="Dog 5"><circle id="BG" class="cls-1" cx="375.5" cy="375.5" r="375"/><g id="Dog_5-2" data-name="Dog 5"><path id="Head" class="cls-2" d="M229,165s128-102,268-9,177,340,0,445-305-67-305-67S51,350,229,165Z"/><g id="Ears"><path id="EarL" class="cls-3" d="M146,209s136-114,83-16-43,144-43,144,10,41-32,99-19,52-65,0S14,314,70,269,146,209,146,209Z"/><path id="EarR" class="cls-3" d="M541,159s-44-29-28,25,53,66,50,131,21.78,107.4,45.89,131.7S633,469,654,439s85-127,12-203Z"/></g><g id="Eyes"><g id="EyeL"><circle id="EyeBodyL" class="cls-3" cx="274.8" cy="344.88" r="42.71"/><ellipse id="EyeShineL" class="cls-4" cx="279.28" cy="324.14" rx="19.99" ry="20.9" transform="translate(-55.91 590.05) rotate(-87.68)"/></g><g id="EyeR"><circle id="EyeBodyR" class="cls-3" cx="470.37" cy="342.9" r="41.15"/><ellipse id="EyeShineR" class="cls-4" cx="476.43" cy="323" rx="19.26" ry="20.14" transform="translate(134.4 785.95) rotate(-87.68)"/></g></g><g id="Face"><path id="Mouth" class="cls-3" d="M318,401s-58,17-56,96,10,84,38,89,71-44,71-44,25,46,74,44,40-92,40-92-2.47-73.22-56-93C383,384,339,389,318,401Z"/><g id="Nose"><path id="NoseBody" d="M371,425s-56,3-53,38,36,14,36,14-2,34,20,35,27-22,25-35c0,0,33,10,34-14S404,425,371,425Z"/><path id="NoseShine" class="cls-4" d="M391.74,440.46s-11.83,5.17,0,8.87,11.56-1.48,16,5.91,8.39,14,9.87,0S403.56,441.2,391.74,440.46Z"/></g><path id="Chin" class="cls-5" d="M374,521s-10.23,40.88-45.12,55.44c0,0,42.12,37.56,88.69,5.42C417.57,581.86,385,564,374,521Z"/></g><g id="Eyebrows"><path id="EyebrowL" class="cls-6" d="M256,284s-15,17,6,12,49-1,54-12-4-18-19-14S256,284,256,284Z"/><path id="EyebrowR" class="cls-6" d="M495.2,283s15,17-6,12-49-1-54-12,4-18,19-14S495.2,283,495.2,283Z"/></g></g></g></svg>