<svg xmlns="http://www.w3.org/2000/svg" viewBox="0 0 750 750"><defs><style>.cls-1{fill:#abcadb;}.cls-2{fill:#e6e6e6;}.cls-3{fill:#4d4d4d;}.cls-4{fill:#d8b2b2;opacity:0.6;}.cls-5{fill:#b3b3b3;}.cls-6{fill:#333;}.cls-7{fill:#fff;}.cls-8{fill:#5e4842;}

	#Dog_6:hover #BG{fill:#cccccc;}


</style></defs><title>Artboard 6</title><g id="Dog_6" data-name="Dog 6"><g id="Dog6"><circle id="BG" class="cls-1" cx="375.5" cy="375.5" r="375"/><g id="HeadColor"><path id="Head" class="cls-2" d="M183.5,166.5s33-80,46-102,30-18,49,16,42,70,46,124c0,0,39,23,78,0,0,0,20-89,55-137s54,13,54,13,58,123,65,227,47,279-129,376c0,0-72,81-208-21S114.5,348.5,183.5,166.5Z"/><path id="EyeBrows_Colorant" data-name="EyeBrows/ Colorant" class="cls-3" d="M522.37,625.11C610.3,526.43,582.25,393,576.5,307.5c-7-104-65-227-65-227s-19-61-54-13-55,137-55,137c-39,23-78,0-78,0-4-54-27-90-46-124s-36-38-49-16-46,102-46,102C117.84,339.68,104.71,540,220.77,646.91,196.42,607.34,147.69,514.67,156,418c6.59,2.9,16.57,6,27,3.12,17-4.65,18.3-20.42,39-40.12,5.66-5.38,23.48-21.95,50-28a97.15,97.15,0,0,1,46,1,47.76,47.76,0,0,1,25.5,14.88C361,389,352.57,416.26,352,418c0,0,12,44,15-127,0,0,3-51,8,0s8,110,8,110,3,33,8-3c1.15-8.27,7.78-36.44,23-47.86,16.59-12.45,42.53-3.73,47-2.14,44,15.69,51.8,71,82,70,10.78-.35,16.15-8.05,23-3.93,8.42,5.06,8,23,8,48.93C574,498.45,551.22,581,522.37,625.11Z"/></g><g id="InnerEars"><path id="InnerEarL" class="cls-4" d="M237.5,82.5s43-10,61,69,10,71-16,94-82,65-108,62,46-200,46-200S222.5,96.5,237.5,82.5Z"/><path id="InnerEarR" class="cls-4" d="M456.5,89.5s31-49,48,11,91,218,39,207-81-64-114-90c0,0-17,1,0-54S456.5,89.5,456.5,89.5Z"/></g><g id="Face"><path id="Mouth" class="cls-5" d="M316.5,488.5s-61,85-51,132,36,77,94,79,109-20,110-81-48-130-48-130S372.5,398.5,316.5,488.5Z"/><g id="Nose"><path id="NoseBody" class="cls-6" d="M359.5,586.5s-40,3-37,36,28,29,28,29,3,14,25,15,23-16,23-16,25,0,28-24-11-38-35-40S359.5,586.5,359.5,586.5Z"/><path id="NoseShine" class="cls-7" d="M385.74,594.46s-11.83,5.17,0,8.87,11.56-1.48,16,5.91,8.39,14,9.87,0S397.56,595.2,385.74,594.46Z"/></g><path id="Chin" class="cls-3" d="M375.5,666.5s-5,32-43.5,30.5c0,0,42.5,28.5,80-3C412,694,381.5,698.5,375.5,666.5Z"/></g><g id="Eyes"><g id="EyeL"><circle id="EyeBodyL" class="cls-8" cx="271.93" cy="430.98" r="33.22"/><ellipse id="EyeShineL" class="cls-7" cx="275.41" cy="414.85" rx="15.55" ry="16.25" transform="translate(-150.26 673.23) rotate(-87.68)"/></g><g id="EyeR"><circle id="EyeBodyR" class="cls-8" cx="463.01" cy="433.45" r="32"/><ellipse id="EyeShineR" class="cls-7" cx="467.73" cy="417.96" rx="14.98" ry="15.66" transform="translate(31.16 868.37) rotate(-87.68)"/></g></g></g></g></svg>