<svg xmlns="http://www.w3.org/2000/svg" viewBox="0 0 750 750"><defs><style>.cls-1{fill:#abb9d8;}.cls-2{fill:#8c7b6b;}.cls-3{fill:#736357;}.cls-4{fill:#534741;}.cls-5{fill:#333;}.cls-6{fill:#fff;}.cls-7{fill:#5e4842;}.cls-8{fill:#b19287;}

	#Dog_7:hover #BG{fill:#cccccc;}
</style></defs><title>Artboard 7</title><g id="Dog_7" data-name="Dog 7"><circle id="BG" class="cls-1" cx="375.5" cy="374.5" r="375"/><g id="Dog7"><path id="Head" class="cls-2" d="M120,186s40.86-126,111.23,6.82l30.65,65.83s6.81,20.43,22.7,9.08,126-14.76,155.51,3.4,37.45-12.48,37.45-12.48,28.38-102.16,84-136.21,80.59,35.19,80.59,68.1-14.76,97.62-14.76,97.62c10,39.09,15.48,88.42-11.35,120.32-14.75,17.54-40.24,11.5-48.8,31.78-34.06,80.59-25,84-62.43,148.7-9.79,16.91-31,65.27-80.59,73.77-39.73,6.82-95.35,26.11-183.89-17,0,0-39-17.28-44.26-70.38-4.14-41.47-19.94-43-7.95-118L179,426.68s-18.16,12.49-34-77.19S112.07,236,120,186Z"/><g id="Face"><path id="Chin" class="cls-3" d="M249.42,565.16c-2.77,26.33,5.51,41.12,10.21,47.67C293,659.38,395,637.45,401.51,611.7c2.42-9.61-9.28-16.49-5.67-30.65,4.2-16.48,24.5-19.95,23-29.24C416.21,535.38,380,530,380,530H249.42Z"/><path id="Mouth" class="cls-4" d="M341.36,434.63c-11.58-.14-40.09,1.16-67,20.43-5.07,3.63-24.86,18.57-36.33,44.26-5.7,12.78-5.84,20.39-14.75,34.06-10.18,15.59-15.38,13.94-21.57,25-11.25,20-9,52.13,9.08,67,1.81,1.48,13,10.82,25,7.88,11.2-2.74,17.84-16.54,27.24-31.72,14.75-23.84,59-31.78,59-31.78s54.48,5.67,62.43,42S435.57,656,435.57,656s54.49-3.74,59-49c2-20.38-11.09-42.26-26.12-52-4-2.63-5.5-2.63-9.08-5.67-13.31-11.35-12.15-27.76-15.89-42-6.82-26-29.09-41.37-43.13-51.08A127.39,127.39,0,0,0,341.36,434.63Z"/><g id="Nose"><path id="NoseBody" class="cls-5" d="M335.68,456.19s-35.19-3.4-40.86,22.7,26.1,20.43,26.1,20.43-3.4,19.3,14.76,21.57,18.16-21.57,18.16-21.57,25,6.81,26.11-10.21S367.46,458.46,335.68,456.19Z"/><path id="NoseShine" class="cls-6" d="M343.33,465.8s-13.42,5.87,0,10.06,13.12-1.68,18.15,6.71,9.53,15.94,11.2,0S356.75,466.63,343.33,465.8Z"/></g></g><g id="EyeBrows"><path id="EyeBrowL" class="cls-3" d="M218.77,366.52s20.43-14.75,37.46-15.89,10.21,15.89,10.21,15.89-27.24-1.13-38.59,4.54S212,371.06,218.77,366.52Z"/><path id="EyeBrowR" class="cls-3" d="M496.14,377.87S475.71,363.12,458.68,362s-10.21,15.89-10.21,15.89,27.24-1.13,38.59,4.54S503,382.41,496.14,377.87Z"/></g><g id="Eyes"><g id="EyeL"><circle id="EyeBodyL" class="cls-7" cx="230.91" cy="421.2" r="34.85"/><ellipse id="EyeShineL" class="cls-6" cx="234.56" cy="404.29" rx="16.31" ry="17.05" transform="translate(-178.9 622.27) rotate(-87.68)"/></g><g id="EyeR"><circle id="EyeBodyR" class="cls-7" cx="468.84" cy="436.28" r="33.57"/><ellipse id="EyeShineR" class="cls-6" cx="473.79" cy="420.03" rx="15.71" ry="16.43" transform="translate(34.9 876.41) rotate(-87.68)"/></g></g><g id="InnerEars"><path id="InnerEarL" class="cls-8" d="M149.53,273.45s-45.4-91.95,19.3-114.65c0,0,48.8-10.21,62.42,91.94,0,0,29.52,38.6-35.18,111.24,0,0-31.79,55.62-38.6-23.84S149.53,273.45,149.53,273.45Z"/><path id="InnerEarR" class="cls-8" d="M591.07,144.05s-84,38.59-64.7,126S557,392.63,557,392.63s56.75,35.18,61.29-30.65-17-53.35,0-115.78S629.66,132.7,591.07,144.05Z"/></g></g></g></svg>