<svg xmlns="http://www.w3.org/2000/svg" viewBox="0 0 750 750"><defs><style>.cls-1{fill:#b9abd6;}.cls-2{fill:#8c6239;}.cls-3{fill:#a67c52;}.cls-4{fill:#c69c6d;}.cls-5{fill:#e2bd93;}.cls-6{fill:#1a1a1a;}.cls-7{fill:#fff;}.cls-8{fill:#5e4842;}


	#Dog_8:hover #BG{fill:#cccccc;}
</style></defs><title>Artboard 8</title><g id="Dog_8" data-name="Dog 8"><circle id="BG" class="cls-1" cx="375.5" cy="374.5" r="375"/><g id="Dog8"><g id="InnerEars"><path id="InnerEarL" class="cls-2" d="M122,236s19,39,29,44,0,16,0,16-.53,21,12.74,28.51S278,204,278,204l-9-30-60.16-28.7L140,189Z"/><path id="InnerEarR" class="cls-2" d="M529,159l-57,18-5,35,99,122,27-30s-18-14,0-24,25-45,25-45l-31.48-60.9Z"/></g><g id="OuterEars"><path id="OuterEarL" class="cls-3" d="M299,174s-83-74-148,0c0,0-69,18-59,48s27,88,38,48,30-136,109-104c0,0,24.24,8.74,12.62,28.87Z"/><path id="OuterEarR" class="cls-3" d="M444,180s60-53,120-28c0,0,52,43,68,43s22,42,10,63-19,37-31,0-23-101-103-84c0,0-18,14-8,38S444,180,444,180Z"/></g><path id="Head" class="cls-4" d="M299,174s71-17,147,0S574,299,579,362s12,143-30,198S480,665,375,667s-163-73-163-73-85-72-54-243S299,174,299,174Z"/><g id="Mouth"><path id="Mouth-2" data-name="Mouth" class="cls-5" d="M367,308s-136-1-138,127c0,0-33,88-8,122s51,28,68,7,68-85,68-85l72,85s54,70,87,2-8-133-8-133S506,320,367,308Z"/><path id="Chin" class="cls-3" d="M362,406c-1,46-5.5,55.8-21,88-13,27-26.68,41.63-38,53,0,0,62,33,109-3a146.24,146.24,0,0,1-26-31C359,469.75,365,436,362,406Z"/><g id="Nose"><path id="NoseBody" class="cls-6" d="M359,405s-9-7-7-27-11-2-11-2-27,20-26-10,52-29,52-29c40,4,49,23,48,39s-32,7-33,2-5-26-10,0c0,0,2.19,23.38-7.17,27.05A8.61,8.61,0,0,1,359,405Z"/><path id="NoseShine" class="cls-7" d="M378.28,348.22s-10.52,4.6,0,7.88,10.28-1.31,14.22,5.26,7.47,12.49,8.78,0S388.79,348.87,378.28,348.22Z"/></g></g><g id="Eyes"><g id="EyeL"><circle id="EyeBodyL" class="cls-8" cx="238.76" cy="333.51" r="29.92"/><ellipse id="EyeShineL" class="cls-7" cx="241.9" cy="318.99" rx="14.01" ry="14.64" transform="translate(-86.63 547.76) rotate(-87.68)"/></g><g id="EyeR"><circle id="EyeBodyR" class="cls-8" cx="496.06" cy="338.45" r="28.83"/><ellipse id="EyeShineR" class="cls-7" cx="500.3" cy="324.51" rx="13.49" ry="14.11" transform="translate(155.79 811.25) rotate(-87.68)"/></g></g><g id="EyeBrows"><path id="EyeBrowL" class="cls-2" d="M200,310s11.14-33.43,43.37-34.25a25.68,25.68,0,0,1,18.23,7c5.85,5.53,14.46,12,16.4,4.21,3-12,1.65-16-15-20C242,262,216,255,200,310Z"/><path id="EyeBrowR" class="cls-2" d="M535.27,314s-11.15-33.43-43.37-34.25a25.68,25.68,0,0,0-18.23,7c-5.86,5.53-14.47,12-16.4,4.21-3-12-1.66-16,15-20C493.27,266,519.27,259,535.27,314Z"/></g></g></g></svg>