<svg xmlns="http://www.w3.org/2000/svg" viewBox="0 0 750 750"><defs><style>.cls-1{fill:#d3a9d3;}.cls-2{fill:#8a6d54;}.cls-3{fill:#c69c6d;}.cls-4{fill:#5e4842;}.cls-5{fill:#fff;}.cls-6{fill:#c7b299;opacity:0.8;}.cls-7{fill:#1a1a1a;}.cls-8{fill:#a6886a;}

	#Dog_9:hover #BG{fill:#cccccc;}

</style></defs><title>Artboard 9</title><g id="Dog_9" data-name="Dog 9"><circle id="BG" class="cls-1" cx="375.5" cy="374.5" r="375"/><g id="Dog9"><g id="Ears"><path id="EarL" class="cls-2" d="M263.15,145.33S248,172,219,184s-49,94-49,94-27,113-20,173,8,80-1,105,11,44,11,44,50,61,66,24,15-72,15-72-13-17,4-45,47-81,47-81V145Z"/><path id="EarR" class="cls-2" d="M554,196s39,51,56,149,9,164,5,213-2,58-38,78-82,53-105,10c0,0-10-39,0-78s-26-74-26-74l69-273Z"/></g><path id="Head" class="cls-3" d="M292,90s43-53,129-46S553,148,553,148s31,166-62,259c0,0,8,101-38,105s-49-14-51-36c0,0-45,19-69-15,0,0-13,29-34,23s-44-13-33-81l4-29s-46-63-23-168S292,90,292,90Z"/><g id="Eyes"><g id="EyeL"><circle id="EyeBodyL" class="cls-4" cx="320.48" cy="177.88" r="25.73"/><ellipse id="EyeShineL" class="cls-5" cx="324.72" cy="165.82" rx="12.04" ry="12.59" transform="translate(107.68 458.79) rotate(-80.52)"/></g><g id="EyeR"><circle id="EyeBodyR" class="cls-4" cx="493.42" cy="210.81" r="24.79"/><ellipse id="EyeShineR" class="cls-5" cx="498.54" cy="199.37" rx="11.6" ry="12.13" transform="translate(219.79 658.27) rotate(-80.52)"/></g></g><g id="Face"><path id="Mouth" class="cls-6" d="M466,263c-29-34-37-28-64-37,0,0-69-8-86,43s-38,69-46,105l-4,29c-11,68,12,75,33,81s34-23,34-23c24,34,69,15,69,15,2,22,5,40,51,36s38-105,38-105c.35-.35.68-.7,1-1C492.28,394.78,493.71,295.49,466,263Z"/><g id="Nose"><path id="NoseBody" class="cls-7" d="M399,304s-44-11-53,14-1,49,21,38c0,0-4,26,15,30s25-28,25-28,16,20,27-1,0-32,0-32S434,313,399,304Z"/><path id="NoseShine" class="cls-5" d="M405.14,314.32s-14.83,2.9-3.34,11.44S415,327.54,417,338.48s3.84,20.78,10.75,3.14S417.74,319,405.14,314.32Z"/></g><path id="Chin" class="cls-8" d="M382,386s-3,36-27,46-22,29-22,29,20,32,69,15c0,0,6.5-26.58-12-42C378,424,382,386,382,386Z"/></g><g id="EyeBrows"><path id="EyebrowL" class="cls-2" d="M299,145s29-26,57-29,12-10,12-10-5-8-26,0-43,16-50,29S299,145,299,145Z"/><path id="EyebrowR" class="cls-2" d="M533,188.06S515.1,153.48,490,140.77s-7.68-13.6-7.68-13.6,7.51-5.71,24.32,9.2,34.55,30.18,36.5,44.81S533,188.06,533,188.06Z"/></g></g></g></svg>